<svg width="693" height="520" viewBox="0 0 693 520" fill="none" xmlns="http://www.w3.org/2000/svg">
<path fill-rule="evenodd" clip-rule="evenodd" d="M161.5 0.000113396C211.913 -0.653098 245.462 47.2171 280.988 82.9733C316.322 118.535 336.137 137.894 335 188C333.873 237.692 325.66 259.897 289.063 293.549C267.022 313.816 245.589 341.711 217 355.974C201.143 363.885 182.5 364.5 161.5 363.5C144 366.5 129.5 366.5 115.5 364.5C85.3065 359.014 62.6105 340.448 38.9328 315.289C5.41304 279.673 -2.93467 228.165 0.836155 179.412C4.30581 134.553 29.1036 97.159 58.4435 63.0367C91.1459 25.0038 111.331 0.650163 161.5 0.000113396Z" fill="white"/>
<path fill-rule="evenodd" clip-rule="evenodd" d="M327.932 399.678C314.138 400.361 304.476 387.627 294.394 378.221C284.366 368.866 271.047 360.123 270.858 346.432C270.671 332.854 283.83 323.955 293.512 314.401C302.579 305.455 311.407 295.497 324.066 293.932C337.681 292.249 352.012 296.351 361.769 305.961C371.301 315.35 374.101 329.328 373.555 342.676C373.053 354.958 366.638 365.415 358.947 375.025C350.374 385.736 341.66 398.998 327.932 399.678Z" fill="white"/>
<path fill-rule="evenodd" clip-rule="evenodd" d="M539.804 57.0007C593.297 57.2207 630.203 106.555 659.975 151.046C686.028 189.98 699.525 235.418 689.884 281.277C680.025 328.174 650.869 367.714 609.394 391.647C563.273 418.261 506.908 438.182 459.302 414.334C412.214 390.746 397.334 333.471 389.271 281.38C382.054 234.76 392.115 189.217 418.39 150.053C448.288 105.487 486.18 56.7803 539.804 57.0007Z" fill="white"/>
<path fill-rule="evenodd" clip-rule="evenodd" d="M169.816 140.546C169.442 137.005 169.926 129.604 169.958 129.154C170.163 126.312 168.928 115.087 166.592 116.121C162.674 112.777 157.456 112.039 152.577 111.686C142.441 110.954 131.659 112.636 123.832 119.989C119.962 123.808 116.194 129.362 116.497 135.145C112.98 140.626 108.023 148.145 112.404 154.554C113.893 156.601 116.261 157.364 118.131 158.914C121.895 162.186 124.256 166.883 128.055 170.135C138.119 179.885 155.21 181.922 165.098 170.832C172.745 162.801 171.508 150.785 170.163 140.546C169.259 133.662 170.545 147.454 169.816 140.546Z" fill="#FBDBC5"/>
<path fill-rule="evenodd" clip-rule="evenodd" d="M139.036 96.6705C141.747 96.0808 144.53 95.7139 147.298 95.8243L147.512 95.8333C149.594 95.923 152.232 96.1215 154.049 97.4271C154.153 97.3141 154.322 97.256 154.474 97.3345C156.633 98.4455 159.008 99.2488 161.281 100.047C163.544 100.841 165.892 101.366 168.264 101.577C169.156 101.657 169.92 102.695 169.355 103.627C169.221 103.849 169.09 104.073 168.959 104.298C169.177 104.274 169.396 104.248 169.614 104.225C170.331 104.147 171.048 104.972 171.006 105.726C170.979 106.2 170.932 106.668 170.862 107.13C171.135 107.124 171.407 107.168 171.669 107.288C172.999 107.893 172.906 109.6 172.807 110.899C172.669 112.701 172.043 114.61 170.882 115.959C171.749 116.93 172.363 118.089 172.729 119.466C172.995 120.471 173.142 121.542 173.069 122.588L173.046 122.902C172.956 124.037 172.777 125.294 172.019 126.111C171.63 126.533 171.151 126.686 170.694 126.637C170.97 129.255 171.147 131.887 171.314 134.509L171.392 135.763C171.764 141.824 172.043 147.925 171.97 153.997C171.902 159.671 170.862 165.178 167.634 169.785C164.694 173.98 160.473 177.073 155.698 178.248C153.124 178.883 150.497 178.928 147.892 178.524C146.629 178.327 145.358 178.026 144.16 177.55C142.834 177.022 141.88 176.245 140.988 175.081C140.566 174.529 140.769 173.353 141.609 173.464C142.881 173.63 144.041 173.83 145.26 174.235L145.435 174.295C146.649 174.714 147.906 175.027 149.175 175.16C151.775 175.431 154.414 175.158 156.904 174.308C160.959 172.923 164.451 169.836 166.69 165.957C169.346 161.359 169.647 156.14 169.608 150.854C169.567 145.053 169.392 139.248 169.107 133.453L169.058 132.487C168.907 129.505 168.761 126.521 168.633 123.537C168.593 122.601 168.532 121.658 168.422 120.724C167.421 120.091 166.523 119.219 165.938 118.142C164.762 118.666 163.526 119.045 162.388 119.346C159.753 120.045 157.017 120.214 154.335 119.777C153.612 120.099 152.874 120.382 152.125 120.626C151.923 120.723 151.72 120.818 151.518 120.911C149.712 121.744 147.88 122.45 145.973 122.966L145.505 123.092C144.502 123.359 143.412 123.622 142.344 123.704C142.169 123.777 141.979 123.839 141.772 123.893C140.8 124.148 139.791 124.228 138.795 124.138C137.824 124.05 137.122 122.993 137.657 122.002C138.048 121.28 138.442 120.559 138.84 119.84C137.456 120.462 136.027 120.978 134.585 121.416C133.13 121.858 131.654 122.231 130.176 122.573C129.386 122.755 128.593 122.916 127.804 123.097C127.24 123.227 126.373 123.294 125.913 123.695C125.404 124.135 125.26 125.16 125.067 125.793C124.814 126.615 124.576 127.441 124.359 128.275C123.927 129.942 123.572 131.632 123.298 133.339C123.024 135.048 122.839 136.774 122.737 138.506C122.635 140.236 122.68 141.977 122.515 143.699C122.426 144.612 121.516 145.082 120.844 144.444C120.766 144.369 120.686 144.293 120.607 144.217L120.49 144.101C119.915 143.54 119.358 142.944 118.898 142.274C118.814 142.151 118.735 142.022 118.66 141.89C118.648 141.89 118.637 141.887 118.625 141.877L118.498 141.774C117.093 140.647 114.747 139.178 113.378 141.05C112.941 141.646 112.718 142.406 112.532 143.138L112.207 144.45C111.996 145.306 111.798 146.166 111.683 147.042C111.42 149.004 111.552 151.265 112.804 152.838C113.305 153.467 113.994 153.916 114.763 154.034C115.192 154.098 115.616 154.019 116.041 153.961C116.474 153.903 116.89 153.997 117.323 153.952C118.01 153.879 118.311 154.766 118.054 155.324C117.915 155.623 117.752 155.882 117.566 156.101C117.715 156.239 117.858 156.389 117.995 156.546C118.401 156.687 118.766 156.988 119.038 157.387C119.259 157.709 119.373 158.059 119.393 158.428C119.417 158.519 119.438 158.613 119.457 158.709L119.83 159.36C119.911 159.503 119.993 159.645 120.075 159.783C121.023 161.393 122.076 162.756 123.383 164.04C124.642 165.276 126.009 166.382 127.191 167.707L127.331 167.865C128.433 169.117 129.595 170.633 129.164 172.455C129.053 172.923 128.447 173.26 128.051 172.943C126.778 171.925 126.137 170.311 125.057 169.076C123.946 167.803 122.714 166.659 121.6 165.39C120.546 164.192 119.714 162.834 119.087 161.341C118.837 161.638 118.472 161.85 117.967 161.932C117.099 162.073 116.289 161.524 115.911 160.713C115.668 160.83 115.42 160.934 115.169 161.017C113.853 161.451 113.025 159.873 113.522 158.707C113.787 158.081 114.119 157.539 114.531 157.082C113.244 156.891 111.934 156.174 111.089 155.279C108.967 153.031 108.675 149.652 109.153 146.647C109.406 145.054 109.844 143.442 110.412 141.947C110.51 141.686 110.617 141.424 110.733 141.166C110.668 141.164 110.602 141.134 110.561 141.076C110.177 140.511 109.71 140.048 109.425 139.416C109.163 138.835 108.871 138.248 108.665 137.643C108.239 136.406 108.031 135.009 107.892 133.7C107.605 131.022 107.716 128.36 108.097 125.698C108.744 121.164 110.309 116.825 112.613 113.018C112.488 112.946 112.367 112.861 112.255 112.759L112.2 112.707L112.11 112.62C111.452 111.978 111.509 110.776 112.11 110.126L112.3 109.921C112.54 109.663 112.747 109.46 113.135 109.179C113.193 109.138 113.251 109.099 113.31 109.063C113.107 108.658 113.037 108.185 113.178 107.663C113.672 105.844 116.099 105.908 117.638 106.701C119.34 105.064 121.228 103.642 123.274 102.491C128.146 99.7499 133.656 97.8386 139.036 96.6705ZM113.848 144.575C114.758 144.255 115.967 144.927 116.785 145.331C117.821 145.844 118.703 146.602 119.558 147.404C119.983 147.804 120.059 148.459 119.954 149.019C119.943 149.075 119.933 149.133 119.921 149.191C119.808 149.788 119.189 150.258 118.642 150.241C117.498 150.208 116.953 149.143 116.305 148.24C116.229 148.386 116.133 148.521 116.015 148.622L115.935 148.69C115.666 148.91 115.37 149.087 115.015 149.07C114.763 149.057 114.522 148.987 114.299 148.862C113.744 148.545 113.499 147.77 113.65 147.14C113.744 146.743 113.959 146.432 114.24 146.217L114.136 146.139C113.911 145.971 113.707 145.794 113.547 145.532L113.511 145.47H113.525C113.351 145.148 113.464 144.71 113.848 144.575Z" fill="#FFA800"/>
<path fill-rule="evenodd" clip-rule="evenodd" d="M149.853 165.804C148.685 165.29 147.644 164.434 146.882 163.34C146.618 162.96 146.549 162.558 146.605 162.191C146.667 161.778 146.894 161.404 147.203 161.153C147.513 160.901 147.901 160.776 148.276 160.84C148.601 160.895 148.926 161.087 149.182 161.486L149.236 161.566C149.689 162.226 150.279 162.768 150.951 163.117C151.599 163.453 152.323 163.61 153.073 163.519C154.501 163.345 155.486 162.513 156.532 161.382C156.661 161.239 156.791 161.092 156.922 160.942C157.004 160.807 157.118 160.72 157.245 160.674C157.386 160.623 157.545 160.626 157.691 160.681C157.832 160.734 157.958 160.834 158.042 160.968C158.122 161.095 158.168 161.252 158.153 161.432C158.057 162.604 157.489 163.649 156.682 164.471C155.786 165.383 154.597 166.013 153.478 166.235C152.246 166.478 150.99 166.304 149.853 165.804V165.804ZM154.06 147.728C155.371 148.587 157.369 150.591 155.959 152.721C154.298 154.599 151.907 152.446 150.729 151.472C149.637 150.717 148.41 152.658 149.423 153.539C157.936 160.334 161.391 147.952 154.723 146.717C153.989 146.581 153.716 147.462 154.06 147.728ZM138.805 139.824C138.95 137.885 141.688 137.445 141.961 139.363C142.205 141.082 141.918 142.661 141.2 144.208C140.514 145.686 138.789 144.996 138.659 143.65C138.484 141.846 138.715 141.03 138.805 139.824ZM159.654 138.966C160.035 138.427 160.587 138.059 161.247 138.267C163.311 138.917 162.703 142.075 161.978 143.613C161.584 144.448 160.311 144.659 159.736 143.924C158.798 142.725 158.349 140.331 159.541 139.15C159.574 139.089 159.609 139.028 159.654 138.966ZM141.171 131.341L141.497 131.279C142.505 131.091 143.759 130.911 144.472 131.785C144.851 132.248 144.981 133.11 144.472 133.553C143.578 134.334 142.589 134.031 141.517 134.098C140.633 134.152 139.784 134.31 138.933 134.572C137.066 135.147 135.544 136.198 133.95 137.351C133.741 137.502 133.527 137.214 133.627 137.003C134.547 135.059 136.331 133.462 138.118 132.489C139.072 131.969 140.115 131.539 141.171 131.341ZM157.772 130.47L158.022 130.525C160.737 131.137 164.265 132.359 165.551 135.235C165.6 135.641 165.548 135.728 165.506 135.785L165.492 135.804C165.457 135.853 165.43 135.92 165.266 135.975C165.221 135.964 165.175 135.951 165.129 135.938C164.539 135.772 164.073 135.542 163.622 135.304L163.132 135.044C162.564 134.744 161.991 134.455 161.384 134.241C160.088 133.786 158.755 133.465 157.402 133.293C157.108 133.256 156.826 133.149 156.603 132.966C156.392 132.793 156.23 132.552 156.156 132.233C156.061 131.819 156.088 131.506 156.294 131.133C156.449 130.853 156.67 130.659 156.925 130.547C157.184 130.434 157.479 130.407 157.772 130.47Z" fill="black"/>
<path fill-rule="evenodd" clip-rule="evenodd" d="M488.802 158.88C479.501 158.88 467.494 164.502 466.47 170.26C465.264 177.046 458.802 203.085 460.261 211.435C461.72 219.785 469.583 225.796 482.164 225.796C494.744 225.796 504.135 219.185 506.291 216.915C508.447 214.645 512.442 206.541 512.442 206.541C512.442 206.541 519.179 205.678 519.21 200.387C519.242 195.096 514.831 193.171 514.831 193.171C514.831 193.171 516.404 172.291 512.442 166.855C508.481 161.418 498.104 158.88 488.802 158.88Z" fill="#FCC39C"/>
<path fill-rule="evenodd" clip-rule="evenodd" d="M467.038 169.331C467.045 169.21 466.862 169.196 466.827 169.303C464.821 175.691 463.584 180.669 462.281 187.219L461.897 189.145C460.869 194.284 459.831 199.43 458.954 204.593L458.903 204.902C458.463 207.574 458.21 210.273 458.761 212.951C459.275 215.455 460.681 217.75 462.506 219.578C466.033 223.111 470.934 225.317 475.865 226.304C478.358 226.803 480.93 226.995 483.471 226.822C484.737 226.736 486.002 226.564 487.242 226.31L487.379 226.282C488.629 226.022 489.738 225.712 490.402 224.579C490.569 224.293 490.502 223.804 490.151 223.657C489.49 223.382 489.003 223.267 488.281 223.346C487.591 223.422 486.918 223.622 486.236 223.747C484.934 223.985 483.61 224.105 482.285 224.134C479.682 224.189 477.072 223.875 474.584 223.126C470.308 221.84 465.964 219.379 463.466 215.698C460.527 211.368 461.697 206.112 462.476 201.33L462.499 201.185C463.288 196.297 464.067 191.409 464.824 186.518L465.147 184.422C465.995 178.883 466.796 174.929 467.038 169.331ZM510.448 155.774C508.314 154.418 505.663 154.085 503.156 154.104L502.842 154.108C499.633 154.155 483.478 154.525 478.069 154.639L476.782 154.665C475.079 154.696 471.644 154.729 469.875 154.76L469.773 154.762C468.904 154.778 468.036 154.784 467.168 154.811L467.041 154.815C466.39 154.842 465.849 154.936 465.34 155.377C465.081 155.601 464.98 155.943 465.003 156.268L465.007 156.31L463.718 156.419C462.843 156.494 462.38 157.25 462.727 158.016L462.745 158.053C463.362 159.322 463.834 163.016 464.165 164.381C464.339 165.099 464.478 165.829 464.56 166.563C464.625 167.14 464.632 167.72 464.966 168.228C465.679 169.312 467.684 169.303 467.72 167.767C467.722 167.718 467.72 167.671 467.715 167.625C472.761 167.412 479.649 167.432 484.688 167.723C489.395 167.994 494.08 168.61 498.691 169.552C499.859 169.791 501.024 170.051 502.18 170.334C503.129 170.564 504.294 170.701 505.142 171.195C506.092 171.751 506.074 172.747 505.971 173.696C505.86 174.701 505.676 174.183 505.414 175.1L505.398 175.158C505.128 176.152 504.793 177.135 504.351 178.07C504.099 178.603 503.692 179.116 503.847 179.73C503.933 180.076 504.217 180.445 504.477 180.687C505.663 181.784 507.668 181.085 508.474 182.587C509.318 184.159 509.339 186.287 509.41 188.026L509.415 188.128C509.467 189.326 509.452 190.527 509.37 191.722C509.297 192.811 508.995 193.89 509.382 194.936C509.664 195.697 510.584 195.768 511.066 195.149C511.121 195.078 511.172 195.005 511.219 194.932L511.266 194.859L511.269 194.86C511.223 194.93 511.181 195.001 511.14 195.073C511.095 195.154 511.205 195.242 511.272 195.173C512.406 193.984 514.062 194.221 515.345 195.053C516.644 195.899 517.157 197.506 517.224 198.947C517.299 200.546 517.152 202.42 516.46 203.897C516.169 204.522 515.753 205.097 515.063 205.335C514.75 205.443 514.452 205.428 514.126 205.454C513.787 205.479 513.379 205.643 513.05 205.621C512.622 205.592 512.238 206.062 512.359 206.457L512.368 206.483C512.375 206.502 512.381 206.521 512.388 206.538C512.372 206.552 512.355 206.57 512.344 206.595C511.099 209.046 509.392 211.228 507.505 213.251C506.559 214.263 505.511 215.193 504.415 216.053C503.874 216.478 503.304 216.903 502.703 217.245C502.503 217.357 502.32 217.433 502.095 217.495C501.99 217.523 501.871 217.537 501.769 217.57L501.664 217.605C501.657 217.607 501.65 217.609 501.643 217.611C501.342 217.644 501.088 217.837 500.988 218.138C500.727 218.925 501.201 219.619 502.01 219.835C502.887 220.072 503.713 219.657 504.408 219.181L504.454 219.149C505.871 218.165 507.177 217.062 508.307 215.774C510.543 213.231 511.944 210.287 512.593 207.031C512.753 207.364 512.969 207.654 513.345 207.856C513.928 208.172 514.624 208.172 515.263 208.066C516.549 207.856 517.645 207.1 518.377 206.077C519.137 205.016 519.421 203.728 519.593 202.473C519.763 201.217 519.846 199.956 519.676 198.696C519.432 196.887 518.644 195.099 517.112 194.107C518.259 191.7 518.461 189.001 518.379 186.365C518.279 183.119 517.697 179.838 517.25 176.622L515.979 167.481V167.481L515.927 167.113C515.62 164.962 515.246 162.8 514.411 160.774C513.587 158.777 512.335 156.972 510.448 155.774ZM515.799 199.018C513.698 198.036 511.43 198.941 510.299 200.846C509.316 202.502 512.239 203.597 512.726 201.89L512.74 201.837C513.061 200.544 514.369 199.427 515.733 199.253C515.846 199.238 515.93 199.08 515.799 199.018Z" fill="black"/>
<path fill-rule="evenodd" clip-rule="evenodd" d="M482.643 214.306C483.847 213.836 484.921 213.051 485.707 212.048C485.98 211.7 486.051 211.331 485.993 210.995C485.929 210.616 485.695 210.273 485.376 210.043C485.057 209.812 484.656 209.698 484.27 209.756C483.934 209.807 483.599 209.983 483.334 210.349L483.279 210.422C482.812 211.027 482.203 211.524 481.51 211.844C480.842 212.152 480.094 212.296 479.321 212.212C477.848 212.053 476.833 211.29 475.753 210.253C475.62 210.123 475.486 209.988 475.351 209.851C475.266 209.726 475.149 209.646 475.018 209.604C474.872 209.558 474.708 209.561 474.557 209.611C474.412 209.659 474.282 209.751 474.195 209.874C474.113 209.99 474.066 210.134 474.081 210.299C474.18 211.373 474.766 212.332 475.598 213.084C476.523 213.92 477.749 214.499 478.903 214.701C480.174 214.925 481.47 214.765 482.643 214.306V214.306ZM478.303 197.738C476.951 198.525 474.89 200.362 476.345 202.315C478.057 204.036 480.524 202.062 481.739 201.169C482.866 200.478 484.132 202.257 483.086 203.065C474.305 209.293 470.741 197.944 477.619 196.812C478.376 196.687 478.658 197.494 478.303 197.738ZM494.039 190.493C493.89 188.716 491.065 188.313 490.783 190.071C490.532 191.646 490.828 193.093 491.569 194.512C492.276 195.866 494.055 195.234 494.19 194.001C494.37 192.347 494.132 191.599 494.039 190.493ZM472.533 189.707C472.139 189.212 471.571 188.875 470.889 189.066C468.76 189.662 469.388 192.557 470.135 193.966C470.542 194.731 471.855 194.925 472.448 194.252C473.416 193.153 473.879 190.958 472.649 189.876C472.616 189.82 472.579 189.764 472.533 189.707ZM491.599 182.718L491.262 182.661C490.222 182.489 488.929 182.323 488.193 183.125C487.802 183.549 487.668 184.339 488.193 184.746C489.116 185.461 490.136 185.184 491.242 185.244C492.153 185.295 493.029 185.439 493.907 185.679C495.833 186.207 497.402 187.169 499.047 188.226C499.263 188.365 499.483 188.101 499.38 187.907C498.431 186.126 496.59 184.662 494.747 183.77C493.764 183.294 492.687 182.899 491.599 182.718ZM474.474 181.92L474.216 181.97C471.415 182.531 467.776 183.651 466.45 186.287C466.399 186.659 466.453 186.739 466.496 186.791L466.511 186.809C466.546 186.853 466.575 186.915 466.744 186.966C466.79 186.955 466.838 186.944 466.885 186.932C467.493 186.779 467.975 186.569 468.44 186.351L468.945 186.112C469.531 185.837 470.122 185.572 470.748 185.376C472.085 184.959 473.46 184.664 474.856 184.507C475.159 184.473 475.45 184.375 475.68 184.208C475.898 184.049 476.065 183.828 476.141 183.535C476.239 183.156 476.211 182.869 475.999 182.527C475.839 182.271 475.611 182.093 475.348 181.99C475.081 181.886 474.776 181.862 474.474 181.92Z" fill="black"/>
<path fill-rule="evenodd" clip-rule="evenodd" d="M321.308 307.583C319.983 307.172 318.327 307.067 316.877 306.992C311.751 306.667 306.524 309.301 301.498 310.489C299.298 311.075 296.969 311.766 294.615 312.28C292.524 312.586 290.364 312.815 288.191 312.961C286.435 313.018 284.392 312.873 283.792 314.863C280.263 315.601 277.138 315.908 273.774 315.281C274.089 314.125 274.268 312.917 273.943 311.672C274.107 311.377 274.331 310.978 274.451 310.709H274.046C268.141 308.161 261.755 306.42 255.818 303.78C248.069 300.769 236.658 294.952 227.705 290.98C228.311 287.396 228.536 283.755 228.279 280.216L228.639 279.902C228.757 279.207 228.941 278.374 229.273 277.744C229.696 276.536 229.706 274.887 229.873 273.521C230.223 270.851 230.457 266.829 229.82 263.658C229.542 259.358 226.853 256.042 223.954 253.383C220.394 249.588 216.83 245.885 213.354 241.943C194.121 220.804 192.6 194.18 162.49 186.088L162.476 185.963C162.238 185.677 162.141 185.451 161.871 185.902C160.877 185.491 159.637 185.526 158.805 184.831C157.327 183.378 156.278 181.7 155.592 179.709C155.064 175.945 155.438 170.143 152.379 167.735C148.982 165.541 130.931 163.979 129.374 168.776C128.408 169.754 127.969 170.996 127.667 172.517C126.661 174.568 126.027 176.842 125.014 178.925C122.86 183.596 121.463 182.56 117.661 183.628C117.248 182.636 115.995 182.836 115.081 182.98C104.022 184.655 90.5386 189.228 85.8034 200.435L86.2064 200.379C78.033 216.934 83.3336 237.988 84.7955 255.532C85.9779 271.127 84.6257 286.795 81.4121 301.342C77.4677 316.773 77.2414 334.035 85.0674 348.003C85.8628 349.602 86.8313 351.861 88.5449 350.858C89.484 351.624 90.5389 352.152 91.9959 352.613C92.3977 352.927 92.8136 353.454 93.2342 353.68C93.2539 353.71 93.9309 353.29 93.9664 353.278C95.2461 355.247 165.497 361.825 172.788 362.847C179.211 363.682 187.697 365.813 192.932 360.819C197.257 359.486 201.783 356.018 205.24 352.574C207.338 385.37 208.498 452.536 210.37 453.004C211.189 453.304 212.294 453.662 213.221 453.949C213.227 456.305 213.39 458.982 213.218 461.298C212.93 463.915 212.202 467.004 211.873 469.754C210.457 469.652 210.04 471.183 209.876 472.223C208.653 480.815 208.69 487.742 208.777 497.186C223.15 506.313 239.995 511.333 256.168 517.231C257.717 518.486 261.074 517.129 262.862 516.79C269.072 515.471 276.128 511.573 274.56 504.424C273.413 499.041 268.594 495.944 264.538 492.778C260.1 489.311 255.422 485.848 251.341 481.721C248.066 478.396 245.621 475.816 242.891 472.063C241.679 470.318 240.388 467.451 238.759 466.165C240.48 463.964 237.002 466.027 235.686 466.154C234.911 462.223 233.952 458.45 232.802 454.679L233.92 454.734C237.59 451.039 239.648 433.299 239.903 428.037C241.743 393.729 241.699 354.187 234.319 325.294C239.925 329.015 246.072 332.124 251.647 335.804C255.163 338.025 258.729 341.107 262.67 342.184C262.927 342.979 263.866 343.288 264.379 342.509C265.084 342.603 265.993 342.288 266.071 341.941C266.792 340.351 267.837 338.637 267.712 336.909C267.712 336.909 266.744 334.488 266.744 334.488C268.912 335.439 271.27 337.438 273.584 337.622C278.259 354.452 287.471 345.024 296.335 338.474C301.684 334.444 307.536 329.994 313.165 325.697C317.942 321.601 327.267 317.714 322.696 309.601" fill="#FBDBC5"/>
<path fill-rule="evenodd" clip-rule="evenodd" d="M117.255 185.03C117.03 184.541 116.759 184.069 116.343 183.976C111.099 184.533 105.904 186.074 101.084 188.456C83.266 194.002 80.6968 216.491 82.8393 233.534C82.8606 233.844 82.9625 234.497 83.1161 235.481C83.8697 240.31 85.8663 253.103 85.6735 272.422C85.5965 280.14 83.8804 288.205 82.1733 296.228C80.471 304.229 78.7776 312.188 78.7275 319.717C78.6355 333.558 85.0079 346.208 87.4857 349.368C92.23 355.42 100.912 342.378 110.608 327.813C121.022 312.171 132.605 294.771 141.738 297.374C146.909 298.848 172.7 296.377 181.15 293.894C181.719 293.727 181.635 286.405 181.565 280.358C181.515 276.043 181.473 272.377 181.681 272.422C190.019 274.236 203.46 267.988 208.23 265.771C209.048 265.391 209.611 265.13 209.849 265.047C215.438 263.121 221.397 261.912 226.677 264.457C226.555 262.483 225.849 260.593 224.863 258.924C223.647 258.599 222.742 257.491 221.877 256.433C221.573 256.061 221.273 255.694 220.967 255.37C219.669 253.867 218.359 252.375 217.049 250.883C214.595 248.089 212.141 245.295 209.765 242.422C204.541 236.361 200.325 228.993 196.104 221.615C187.762 207.036 179.399 192.418 163.187 187.774C161.573 202.348 144.282 204.673 133.863 199.686L133.467 199.522L133.078 199.359C126.699 196.662 119.625 192.61 117.395 185.345L117.301 185.131L117.255 185.03ZM227.331 272.422C227.493 270.57 227.198 268.913 225.804 267.841C224.134 269.126 222.344 270.194 220.448 271.036C220.454 271.272 220.348 271.523 220.252 271.708C222.748 271.922 225.347 272.617 227.099 274.58C227.184 273.862 227.268 273.142 227.331 272.422Z" fill="#484848"/>
<path fill-rule="evenodd" clip-rule="evenodd" d="M238.964 466.792L239.2 467.149C247.801 480.161 257.317 489.955 267.416 494.971L267.755 495.138L267.787 495.158C270.666 496.971 273.056 499.847 273.994 502.799C275.091 506.255 274.163 509.513 271.047 511.895L270.951 511.967L270.936 511.978C267.013 514.742 262.385 516.461 257.838 516.804L257.67 516.816L257.449 516.831L257.261 516.706C256.055 515.903 254.895 515.442 252.417 514.675L251.373 514.353L250.942 514.217L250.728 514.148C249.823 513.856 249.217 513.634 248.582 513.356L248.38 513.267L247.705 513.021C235.579 508.593 223.599 503.519 211.81 497.824L211.117 497.489L210.055 496.971L210.03 496.52C209.491 486.625 209.513 478.726 210.281 471.286L210.307 471.043L211.689 471.184C211.487 474.085 214.18 476.54 216.723 475.614L216.8 475.585L216.836 475.572L216.942 475.537C217.658 475.288 218.254 474.927 219.314 474.15L220.098 473.57L220.298 473.425L220.443 473.323C220.513 473.273 220.581 473.226 220.65 473.179L220.746 473.114C225.102 470.174 229.789 468.194 234.55 467.351C234.942 467.274 235.348 467.208 235.791 467.148L236.282 467.085L236.786 467.028L238.351 466.863L238.964 466.792ZM319.351 307.218L319.663 307.578C320.694 308.769 321.477 309.936 321.972 311.14C322.59 312.641 322.72 314.129 322.26 315.567L322.223 315.678L322.214 315.699C321.44 317.616 319.624 319.31 316.149 321.782L315.621 322.154C315.064 322.543 313.561 323.589 313.107 323.913L312.907 324.057C312.09 324.646 311.475 325.122 310.984 325.556L310.903 325.628L309.741 326.499L307.351 328.293L305.577 329.626L304.357 330.544C299.693 334.055 295.191 337.463 290.793 340.813L290.569 340.976L290.393 341.107L290.141 341.297L289.785 341.569V341.569L288.601 342.482L288.365 342.663L288.132 342.839L287.896 343.016L287.657 343.192L287.422 343.363C285.017 345.1 283.244 345.96 281.356 346.079C280.013 346.163 278.746 345.806 277.568 344.962L277.484 344.901L277.447 344.874L277.321 344.751L277.215 344.646L277.111 344.542L277.009 344.437C276.468 343.874 275.976 343.263 275.204 342.232L274.554 341.359L274.294 341.014L274.102 340.763L273.965 340.586C273.543 340.042 273.222 339.664 272.859 339.283L272.739 339.158L271.918 338.315L272.987 337.91C277.301 336.274 280.827 331.075 282.276 325.124L282.328 324.91L282.338 324.877C282.6 324.083 282.695 323.269 282.72 321.94L282.733 320.926L282.739 320.592L282.744 320.367L282.751 320.146C282.806 318.555 282.969 317.649 283.436 316.646L283.495 316.521L283.515 316.481L283.539 316.443C283.568 316.398 283.571 316.391 283.559 316.367L283.313 315.918L283.605 315.516C283.733 315.338 283.875 315.163 284.041 314.975L284.113 314.893L284.275 314.713L284.504 314.674C291.72 313.444 299.127 311.631 307.953 309.037L308.841 308.775L309.284 308.647L309.582 308.561L309.878 308.478C312.797 307.659 314.58 307.344 316.618 307.372L316.791 307.375C316.98 307.379 317.141 307.39 317.414 307.417L317.696 307.445L317.826 307.457L317.95 307.466C318.409 307.5 318.653 307.482 318.892 307.395L318.921 307.384L319.351 307.218Z" fill="white"/>
<path fill-rule="evenodd" clip-rule="evenodd" d="M120.376 182.6C124.891 181.417 125.663 169.746 128.389 171.408C129.965 172.886 127.387 175.674 126.931 177.342L126.731 177.765C125.806 179.708 124.76 181.644 122.937 182.765C121.765 184.095 118.262 182.789 118.777 184.907C120.576 191.292 130.12 195.713 135.745 197.701C144.488 201.242 158.632 200.044 160.687 188.174C155.891 187.227 152.345 177.897 155.301 174.013C155.402 177.786 156.358 181.68 159.105 184.237L159.256 184.387C159.74 184.862 160.366 185.43 160.99 185.325C161.598 184.411 162.779 184.931 163.127 185.895C190.432 190.984 196.515 222.739 213.71 241.43C217.145 245.329 220.736 249.062 224.281 252.843C227.901 255.94 230.462 260.257 230.641 265.327C230.964 268.146 230.804 270.969 230.458 273.793L230.434 274.048C230.273 275.798 230.178 277.678 229.406 279.231C229.272 279.758 229.326 280.423 228.904 280.795C229.088 284.017 228.913 287.297 228.407 290.509L229.725 291.143C244.221 298.105 258.886 304.667 274.002 309.886C275.294 309.633 275.188 311.253 274.563 311.989C274.728 312.855 274.746 313.755 274.552 314.612C277.32 315.04 280.132 314.684 282.864 314.14C283.728 312.087 286.025 312.197 287.8 312.139C290.006 311.99 292.209 311.758 294.399 311.428C299.795 310.128 305.094 308.418 310.438 306.915C314.014 305.83 317.871 305.882 321.459 306.88C322.068 307.617 322.631 308.403 323.106 309.238C326.385 314.721 323.154 319.745 318.576 322.625C311.232 328.238 303.886 333.844 296.508 339.405L295.973 339.818C287.196 346.591 277.321 355.165 272.634 338.679C271.059 338.48 269.678 337.339 268.21 336.667C268.605 338.645 267.426 340.644 266.613 342.34C266.263 343.306 265.306 343.624 264.422 343.615C263.666 344.415 262.246 344.1 261.752 343.151C257.739 341.913 254.424 339.022 250.873 336.775C245.823 333.468 240.526 330.649 235.403 327.482C243.913 365.47 241.832 405.039 239.567 443.708L239.551 444.057C239.271 449.702 238.07 452.373 233.727 455.834C234.484 458.322 235.16 460.82 235.676 463.38C235.859 463.974 236.697 463.415 236.704 464.23C238.247 463.841 241.383 464.257 240.289 466.558C243.386 469.361 245.484 473.158 248.199 476.354C252.981 482.534 259.232 487.134 265.362 491.666C279.452 499.408 280.26 512.823 263.774 517.405L263.609 517.447C261.338 518.036 258.604 519.383 256.404 518.249C253.112 517.566 249.844 516.182 246.623 515.128C233.654 510.501 220.969 505.083 208.678 498.856C208.232 498.63 207.98 498.113 207.969 497.595C208.106 493.323 207.03 469.909 211.139 469.405C212.056 464.622 212.2 459.684 212.034 454.802C210.701 454.35 209.353 453.914 207.972 453.631C206.632 453.176 204.536 453.074 203.638 451.903C203.316 451.777 203.079 451.466 203.127 450.975C203.853 443.638 204.404 436.282 204.805 428.916C206.18 404.213 205.713 379.434 204.147 354.758C200.92 357.767 197.243 360.402 193.148 361.803C190.889 364.244 187.265 364.768 184.181 365.064C180.214 365.329 176.317 364.474 172.402 363.943C165.754 363.04 159.153 363.839 152.554 364.724L150.298 365.027C134.142 366.938 116.681 367.333 101.623 359.888C98.7874 360.159 95.2676 356.855 93.499 354.648C92.718 355.168 91.9506 354.152 91.3282 353.618C90.3011 353.281 89.136 352.798 88.2039 352.093C85.8392 352.927 84.5636 349.617 83.6654 347.817C69.409 321.495 85.2858 295.294 84.0917 267.381C84.8148 245.498 75.557 222.699 84.5045 201.711C86.3146 192.83 96.901 186.691 104.869 184.434C107.437 183.977 117.158 180.187 118.229 183.374C118.735 182.657 119.6 182.603 120.376 182.6ZM238.633 467.584C237.297 467.738 235.994 467.827 234.673 468.088C229.853 468.941 225.256 470.953 221.114 473.748C219.772 474.65 218.575 475.786 217.036 476.289C213.872 477.527 210.763 474.452 210.995 471.128C210.113 479.482 210.265 488.079 210.722 496.476C223.095 502.511 235.746 507.892 248.626 512.566C251.526 513.877 254.961 514.296 257.624 516.068C262.167 515.759 266.739 514.04 270.554 511.351C276.882 506.617 272.681 499.108 267.435 495.804C255.887 490.186 246.057 478.815 238.633 467.584ZM213.33 455.228C213.089 457.705 214.834 461.563 214.588 466.499C214.399 468.04 213.953 469.655 214.108 471.202C214.818 476.942 220.583 469.648 222.965 468.849C226.346 466.843 230.021 465.478 233.798 464.731C233.775 463.408 232.962 462.879 232.855 461.571C232.702 459.644 232.71 457.793 232.629 455.847C227.717 458.256 218.541 456.553 213.33 455.228ZM239.797 467.209C239.712 467.271 239.621 467.323 239.528 467.37C240.211 468.261 240.802 469.251 241.612 470.017L241.267 469.44C240.806 468.67 240.335 467.903 239.797 467.209ZM87.2341 261.851C86.9866 262.935 86.5358 263.955 85.8605 264.823C89.3477 295.306 71.4064 320.719 87.9018 349.062C88.1103 349.167 88.3005 349.297 88.4837 349.46C88.5807 349.391 88.6777 349.317 88.7729 349.244C96.5044 334.494 107.51 321.77 116.28 307.654C117.963 304.111 120.733 300.545 121.794 296.451C104.172 288.949 97.1323 278.002 87.2341 261.851ZM319.153 308.089C318.406 308.377 317.575 308.14 316.777 308.124C313.946 308.059 311.18 308.855 308.472 309.66C300.597 311.982 292.68 314.038 284.611 315.414C284.448 315.596 284.292 315.781 284.15 315.977C284.29 316.232 284.312 316.551 284.109 316.868C282.892 319.375 283.876 322.445 282.991 325.128C281.71 330.561 278.302 336.688 273.216 338.616C274.913 340.359 276.128 342.601 277.875 344.283C282.169 347.456 286.899 342.727 290.404 340.191C297.079 335.107 303.771 330.059 310.481 325.031C313.487 322.345 320.138 318.959 321.576 315.4C322.498 312.672 320.82 310.013 319.153 308.089ZM273.156 315.016C270.283 321.333 268.624 328.049 266.965 334.832C268.691 335.343 270.28 336.145 271.976 336.684C274.365 337.264 277.738 332.286 278.936 330.31C280.171 328.1 281.036 325.672 281.437 323.128C281.775 320.637 281.415 318.05 282.42 315.742C279.307 316.085 276.15 316.157 273.156 315.016ZM102.357 301.981C105.055 301.166 98.9175 307.747 98.564 308.449C94.5734 313.529 90.9171 318.895 87.2889 324.276L86.189 325.91C86.0833 326.076 85.3549 327.236 85.8816 327.089C85.9298 327.075 85.9523 327.143 85.914 327.172C82.5586 327.812 100.739 302.429 102.357 301.981ZM168.129 298.875C168.347 298.166 167.311 297.863 167.093 298.568L166.405 300.801C163.81 309.238 161.23 317.687 158.128 325.927C157.869 326.619 158.906 326.92 159.164 326.236C162.538 317.269 165.295 308.055 168.129 298.875ZM198.297 295.921C197.351 300.762 194.961 305.126 193.511 309.753C196.233 309.106 198.33 306.371 199.916 304.019L199.964 303.941C200.712 302.699 201.582 300.759 203.282 301.635C205.862 303.251 204.014 308.982 203.966 311.699C203.638 315.423 202.516 318.906 201.75 322.523C203.717 321.074 204.282 318.216 205.241 315.989L208.931 306.446V306.446C211.643 302.439 210.383 314.438 210.243 315.571C210.023 318.058 209.051 320.561 209.432 323.065C210.962 321.29 211.925 319.06 212.735 316.798C213.858 313.651 214.883 310.463 215.951 307.295C216.321 306.28 217.722 306.636 217.519 307.754C217.45 311.349 217.395 314.945 217.342 318.54L217.302 321.236C217.295 321.748 217.06 323.241 217.879 322.828C222.18 317.961 223.283 308.228 222.723 301.689C214.269 301.909 205.643 300.727 198.297 295.921ZM273.534 314.08C273.499 314.198 273.459 314.317 273.42 314.436C273.444 314.441 273.47 314.447 273.494 314.454C273.51 314.328 273.524 314.204 273.534 314.08ZM85.8893 314.08C84.9515 313.333 100.715 291.511 99.6933 297.81C95.2957 303.42 90.1673 308.337 85.8893 314.08ZM225.099 265.859C210.358 262.125 197.376 276.074 182.572 273.967C182.743 278.962 182.981 283.992 182.887 288.99C202.547 290.739 200.31 299.761 222.942 298.852C225.867 296.74 227.068 283.796 226.821 279.889C227.01 275.269 223.322 273.195 219.649 272.385C218.322 273.248 215.941 270.671 217.912 269.764C220.506 268.923 222.933 267.6 225.099 265.859ZM116.345 183.976C111.1 184.533 105.906 186.074 101.086 188.456C83.2678 194.002 80.6986 216.491 82.8412 233.534C83.7289 246.494 87.1567 259.169 94.3634 269.708C113.55 301.257 145.328 296.262 175.429 292.089C176.514 291.275 178.352 291.853 179.398 290.777C179.289 290.737 179.19 290.681 179.106 290.611C179.608 290.189 179.997 289.447 180.113 288.659L180.33 288.682V288.682C180.542 283.789 180.372 278.992 180.441 274.138C170.55 271.213 159.943 269.718 149.919 266.805C148.78 267.662 147.466 266.676 146.353 266.21C143.468 264.887 140.557 263.63 137.625 262.433L136.891 262.135C134.98 261.363 133.07 260.571 131.176 259.745L130.467 259.434C129.382 258.955 126.643 257.185 125.46 258.29L125.555 258.512C126.257 260.163 128.674 266.271 125.703 265.063C123.29 263.236 122.039 250.497 119.649 250.384C118.827 252.756 118.238 255.217 118.104 257.753C118.055 258.323 117.36 258.804 116.942 258.271C114.107 254.246 118.389 249.862 118.503 245.614C118.773 240.674 116.746 236.052 115.737 231.324L115.675 230.998C115.082 227.93 114.161 224.211 114.406 221.46L114.994 223.848C115.584 226.238 116.188 228.628 116.881 230.984C118.602 236.868 121.709 242.931 119.982 249.227C123.446 249.351 124.031 255.246 125.332 257.938C127.437 254.993 142.249 262.055 145.629 263.188L146.281 262.39C156.867 249.448 164.509 240.688 180.915 250.926C178.081 241.067 177.807 230.596 177.324 220.358C177.49 218.41 176.446 213.273 177.918 212.209C178.173 212.25 178.422 212.333 178.656 212.444L178.656 213.453C178.663 215.408 178.748 218.649 179.508 219.385L179.857 223.256C180.77 233.321 181.806 243.378 184.594 253.078C191.285 257.111 197.39 262.162 203.133 267.61L203.787 267.353C210.884 264.551 219.423 260.96 226.678 264.457C226.557 262.483 225.85 260.593 224.865 258.924C223.221 258.484 222.145 256.615 220.969 255.37C217.239 251.05 213.411 246.829 209.767 242.422C194.219 224.386 187.605 194.769 163.189 187.774C161.575 202.348 144.284 204.673 133.864 199.686L133.469 199.522C126.992 196.826 119.672 192.758 117.397 185.345L117.303 185.131C117.069 184.608 116.79 184.075 116.345 183.976ZM120.188 266.913C120.207 266.891 120.244 266.921 120.228 266.946C117.192 271.054 114.721 276.657 117.739 281.564C118.296 282.669 116.993 283.73 116.159 282.888C111.971 277.76 116.617 270.809 120.188 266.913ZM225.806 267.841C224.136 269.126 222.346 270.194 220.45 271.036C220.456 271.272 220.35 271.523 220.253 271.708C222.749 271.922 225.349 272.617 227.101 274.58C227.186 273.862 227.269 273.142 227.333 272.422C227.494 270.57 227.2 268.913 225.806 267.841ZM111.015 249.682L111.035 249.583C111.048 249.47 111.206 249.463 111.202 249.583C111.144 251.051 110.153 252.096 109.314 253.141C108.068 254.693 106.823 256.244 105.577 257.794C103.494 260.497 100.425 263.214 101.115 267.129C101.128 268.52 99.5121 268.818 98.8565 267.795C96.2488 262.432 104.457 257.869 107.224 254.41C108.523 252.912 110.571 251.81 111.015 249.682V249.682ZM150.099 265.782C150.138 265.849 150.166 265.921 150.181 265.995C150.618 266.045 151.053 266.099 151.488 266.156L150.099 265.782V265.782ZM84.8071 253.24C84.885 253.8 84.958 254.362 85.0278 254.924L85.0966 255.486L85.1073 255.437C85.1429 255.291 85.2101 255.164 85.298 255.063L85.3281 255.03C85.1471 254.436 84.9735 253.839 84.8071 253.24ZM204.648 247.439C205.694 247.319 200.955 250.994 200.693 251.448C200.311 251.807 199.864 251.17 200.272 250.86C201.744 249.74 203.196 248.59 204.648 247.439ZM195.427 236.629C196.155 236.308 196.649 237.615 195.959 237.979C193.445 239.305 190.786 240.244 188.469 241.989C188.367 242.065 188.24 241.887 188.336 241.805L188.615 241.568C190.749 239.74 192.88 237.754 195.427 236.629ZM85.6754 220.105C86.3781 223.674 90.1804 224.846 93.1313 225.797L94.0533 226.175C96.6591 227.251 99.3587 228.461 101.233 230.733C101.968 233.296 96.7251 228.831 95.9932 228.605C92.4128 226.211 85.9435 225.804 85.6754 220.105ZM163.296 186.784C163.316 186.965 163.326 187.15 163.331 187.336C163.552 187.336 163.771 187.338 163.991 187.345C163.734 187.183 163.499 186.998 163.296 186.784Z" fill="black"/>
<path fill-rule="evenodd" clip-rule="evenodd" d="M460.835 352.268C460.484 355.794 461.203 359.16 462.916 362.007L463.474 362.933L462.413 363.289C460.482 363.938 458.335 364.253 455.848 364.253C453.29 364.253 450.629 363.911 448.491 363.636L447.122 363.46L447.794 362.317C448.335 361.399 448.435 360.287 448.541 359.109C448.57 358.793 448.599 358.466 448.638 358.142C450.663 340.747 453.224 323.125 455.701 306.084C456.353 301.599 457.026 296.962 457.68 292.401L459.555 292.47C460.06 300.913 460.549 309.499 461.023 317.802C461.231 321.453 461.439 325.104 461.649 328.755C462.397 337.984 462.139 345.458 460.835 352.268M460.07 456.579C462.824 456.579 465.583 456.303 468.271 455.76C476.681 454.064 484.322 450.063 490.824 446.446C491.156 446.265 491.493 446.084 491.838 445.898C494.384 444.53 497.551 442.828 499.537 440.752C501.714 438.474 502.089 436.204 500.716 433.608L500.499 433.198L500.726 432.792C502.148 430.249 502.042 427.104 500.469 425.142L499.147 423.494L501.32 423.716C503.512 423.939 505.722 424.242 507.858 424.535C510.229 424.86 512.68 425.196 515.095 425.42L515.766 425.483L515.92 426.104C516.006 426.45 516.112 426.66 516.857 426.66C517.503 426.66 518.371 426.478 519.289 426.286C520.43 426.047 521.722 425.777 522.968 425.777C523.516 425.777 524.009 425.827 524.475 425.93L524.747 425.99L524.94 426.18C525.063 426.302 525.274 426.377 525.488 426.377C525.651 426.377 525.801 426.334 525.902 426.258L526.207 426.029L526.593 426.07C533.324 426.78 539.128 428.026 544.336 429.879L544.359 429.887L544.472 429.934C546.356 430.715 548.303 431.522 550.076 431.522C551.372 431.522 552.425 431.099 553.389 430.189L553.661 429.932L554.045 429.929C557.944 429.894 559.726 425.527 559.972 422.599L560.003 422.231L560.301 421.991C567.096 416.513 571.107 408.99 572.565 398.991C573.892 389.883 572.873 380.281 571.701 372.088C568.989 350.858 566.161 331.825 558.973 313.774L558.637 312.931L559.532 312.622C562.637 311.55 565.009 310.271 566.786 308.712L566.909 308.604L567.064 308.543C569.61 307.538 570.858 303.828 571.179 302.716L571.205 302.626L571.25 302.543C571.769 301.586 571.889 300.254 571.579 298.889L571.545 298.742L571.565 298.593C571.732 297.297 571.175 295.942 570.586 294.508C570.316 293.853 570.038 293.175 569.835 292.501C569.135 290.573 568.436 288.611 567.761 286.713C566.244 282.456 564.676 278.054 563.006 273.771L562.778 273.185L563.281 272.782C564.14 272.092 563.853 271.281 562.614 269.341C562.322 268.883 562.045 268.449 561.834 268.022C560.247 265.386 558.545 262.856 556.775 260.501L556.739 260.453L556.71 260.4C547.631 244.112 531.527 235.141 511.363 235.141L510.952 235.142L510.725 235.011C506.946 232.828 504.249 229.082 502.478 223.56L502.422 223.384L502.443 223.201C502.504 222.692 502.571 222.025 502.548 221.377C502.49 219.738 501.821 218.274 500.712 217.363C498.608 215.633 495.415 215.488 492.323 215.488L491.88 215.489C487.928 215.5 485.138 216.159 483.099 217.563C480.731 219.195 479.422 221.83 479.097 225.617C479 226.75 479.003 227.924 479.006 229.06L479.007 229.376L478.967 229.502C478.683 230.402 478.351 231.267 477.979 232.073L477.596 232.902L476.726 232.528C476.163 232.287 475.449 232.162 474.544 232.148C474.282 232.143 474.028 232.14 473.771 232.14C471.668 232.14 469.419 232.324 467.244 232.503C465.605 232.637 463.91 232.776 462.27 232.838L462.247 232.839C462.247 232.839 462.021 232.837 461.919 232.837C457.932 232.837 455.041 233.44 452.823 234.733C450.434 236.125 448.716 238.36 447.418 241.766C440.451 261.289 437.587 282.318 435.061 300.87C433.628 310.572 433.192 320.518 432.771 330.137C432.326 340.289 431.866 350.787 430.237 361.05L430.108 361.861L429.243 361.807C425.436 361.571 421.322 361.063 416.967 360.525C410.35 359.707 403.507 358.861 396.892 358.861C387.644 358.861 380.631 360.61 375.457 364.205C371.851 367.47 369.985 371.891 370.061 376.992C370.17 384.2 374.139 392.17 380.173 397.295L380.195 397.315C387.822 404.236 401.744 410.24 421.575 415.158C439.81 419.681 458.672 422.139 468.293 423.201L470.674 423.464L468.741 424.806C467.959 425.35 467.245 425.828 466.559 426.269L466.117 426.553L465.632 426.339C464.249 425.73 463.371 425.603 462.878 425.603C462.44 425.603 461.912 425.694 461.883 426.129C461.864 426.414 462.075 426.837 462.52 426.891L464.887 427.175L462.955 428.499C461.664 429.383 459.738 430.449 457.508 431.683C450.212 435.721 439.186 441.824 441.083 447.183L441.207 447.535L441.031 447.867C440.521 448.826 440.478 449.717 440.898 450.59C441.798 452.46 444.615 453.879 447.006 454.457L447.047 454.467L447.087 454.48C451.249 455.873 455.617 456.579 460.07 456.579" fill="#FCC39C"/>
<path fill-rule="evenodd" clip-rule="evenodd" d="M478.855 416.334C478.782 416.224 478.716 416.069 478.68 415.932C478.175 416.622 470.101 423.419 462.117 429.189C454.701 434.547 446.195 438.596 442.893 443.063C441.638 444.761 441 449.737 441.241 450.573C441.781 451.23 447.717 454.18 447.717 454.18C449.059 454.529 459.825 457.334 464.608 456.379C466.367 456.122 479.053 452.222 480.655 451.525L494.287 443.926C494.585 443.8 494.881 443.675 495.176 443.551L495.574 443.399C498.614 442.23 502.493 439.753 501.699 436.183C500.765 432.509 502.44 431.706 502.057 429.286C501.725 427.191 501 425.058 499.842 423.025C495.367 427.859 489.688 427.437 486.827 421.428L486.761 421.306L486.697 421.183C485.761 419.39 484.877 417.113 482.662 416.408C481.44 415.614 479.877 415.449 478.855 416.334ZM519.743 402.85L519.466 403.461C518.12 406.419 515.262 412.566 514.127 414.991C514.38 414.542 514.669 414.111 514.994 413.703C515.945 412.513 514.83 416.109 514.821 419.863C514.813 423.344 515.932 426.961 516.19 427.021C516.507 427.095 520.934 425.004 525.084 425.639C528.435 426.151 533.515 426.729 538.562 428.052C542.665 429.128 546.745 430.953 549.857 431.573C552.385 432.077 552.879 429.445 554.531 429.608C556.019 429.755 556.259 429.72 556.627 429.424C558.693 427.783 560.646 421.298 560.451 418.861C558.737 405.947 532.269 401.784 519.743 402.85Z" fill="white"/>
<path fill-rule="evenodd" clip-rule="evenodd" d="M545.764 316.945L544.903 317.172L506.793 327.416C506.55 327.57 506.368 327.681 506.194 327.782L506.07 327.854L505.349 328.265L505.517 329.054C505.894 330.829 505.95 332.655 505.779 335.205L505.769 335.347L505.748 335.637L505.718 336.031L505.707 336.166L505.5 338.596L505.461 339.084C505.43 339.478 505.408 339.807 505.388 340.152L505.383 340.232L505.354 340.79L505.342 341.029C505.239 343.46 505.418 345.834 505.88 349.268L505.903 349.438L505.969 349.915L506.015 350.332L506.206 352.036L506.272 352.645C506.705 356.661 506.919 359.814 506.863 362.752L506.86 362.899C506.776 366.754 506.16 369.367 505.136 370.266L505.104 370.292L505.077 370.314L505.071 370.315C504.97 370.32 504.805 370.259 504.485 370.073L504.351 369.994C504.268 369.943 504.111 369.848 504.038 369.805L503.958 369.758C503.809 369.673 503.68 369.607 503.544 369.551C503.334 369.464 503.12 369.407 502.908 369.391L502.844 369.387L502.835 369.386L502.776 369.337C502.584 369.171 502.401 368.988 502.233 368.793L502.162 368.709L502.101 368.633L501.689 368.112L501.409 367.646C501.194 367.289 501 366.909 500.825 366.508L500.76 366.356L500.704 366.218L498.259 360.137L498.427 366.654C498.484 368.866 497.622 370.013 496.561 370.025C495.445 370.037 494.302 368.858 493.972 366.766L493.961 366.693L491.623 366.978C491.776 368.29 491.288 370.363 490.507 371.532C490.167 372.039 489.848 372.278 489.62 372.297C489.343 372.319 488.908 372.071 488.323 371.349L488.324 371.349L488.336 371.364L488.311 371.33C487.802 370.631 487.52 369.693 487.372 368.357L487.361 368.261L487.351 368.166L486.533 359.897L485.018 368.075C484.87 368.877 484.703 369.682 484.517 370.492L484.482 370.643L484.457 370.633C484.401 370.612 484.33 370.58 484.247 370.535L484.211 370.515L484.177 370.496C483.671 370.2 483.074 369.603 482.836 369.215L482.814 369.177L482.543 368.704L481.989 368.608C481.893 368.592 481.79 368.549 481.716 368.498L481.689 368.479L481.291 368.168L480.783 368.236C473.365 369.225 467.902 368.391 464.425 364.893L464.321 364.786L463.779 364.226L463.036 364.5C459.731 365.718 415.354 360.345 411.651 360.011L410.829 359.939L410.143 359.88C404.331 359.391 399.102 359.465 394.078 359.517L393.755 359.521L393.306 359.547L392.892 359.573C388.674 359.841 385.34 360.338 382.323 361.288C378.54 362.479 375.552 364.332 373.438 367.024L373.344 367.145L373.241 367.295C370.466 371.411 369.63 376.376 370.594 381.573C371.467 386.28 373.799 390.967 377.061 394.738L377.166 394.858L377.354 395.084C384.256 403.262 398.468 409.837 418.209 415.066L418.809 415.224L419.425 415.384C434.053 419.175 450.489 421.958 466.58 423.823L467.083 423.881L468.078 423.994L471.399 424.368L469.285 422.301L469.295 422.298C469.514 422.228 472.913 422.907 472.913 422.907L473.639 422.327C474.056 421.991 474.369 421.733 474.666 421.477L474.805 421.355L475.364 420.861L475.263 420.257C475.263 420.247 475.267 420.231 475.288 420.194L475.298 420.177C475.298 420.177 477.755 417.416 477.946 417.256L477.978 417.229L478.024 417.192L478.043 417.178C478.487 416.86 483.118 417.013 483.118 417.013C483.118 417.013 486.312 411.803 486.732 411.252L486.833 411.12L487.879 411.112L487.483 410.473C486.906 409.541 486.551 408.496 486.402 407.345L486.388 407.226L486.379 407.148L486.445 407.19C486.888 407.479 487.147 407.767 487.233 408.039L487.243 408.071L487.25 408.098L487.256 408.127L487.29 408.246C487.772 409.874 488.796 411.153 490.297 412.168C491.358 412.886 506.608 417.993 510.382 418.917L510.645 418.981L511.586 419.209L512.26 417.833C513.298 415.701 514.642 412.855 516.293 409.292L517.106 407.533L517.941 405.721L521.916 403.48L524.646 403.523C525.223 403.533 525.754 403.543 526.238 403.552L526.476 403.556L527.981 403.587L528.252 403.615C534.548 404.263 540.681 405.575 546.493 407.535L546.789 407.636L547.096 407.741L547.26 407.793L547.553 407.885C551.659 409.195 554.401 410.531 556.369 412.306C558.654 414.367 559.872 417.061 560.034 420.803L560.039 420.923L560.135 423.5L562.045 421.688C567.731 416.291 571.454 408.967 573.042 400.624C574.5 392.961 574.078 384.742 571.916 377.335L571.884 377.225L571.878 377.15C571.716 375.079 571.325 372.962 570.71 370.647L570.652 370.429L570.592 370.21C570.15 368.603 569.711 367.223 568.922 364.927L568.834 364.673L567.788 361.656C562.363 346.654 555.207 332.049 546.489 318.102L546.224 317.679L545.764 316.945Z" fill="#00243E"/>
<path fill-rule="evenodd" clip-rule="evenodd" d="M468.074 422.151C467.786 421.87 467.665 421.502 467.934 421.069C468.973 419.795 471.127 420.666 472.467 420.961C472.973 420.556 473.475 420.15 473.959 419.722C473.791 418.72 475.045 418.054 475.56 417.281C476.066 416.712 476.542 416.065 477.149 415.588C478.627 414.48 480.675 415.23 482.391 415.179C483.712 413.565 485.073 412.001 486.33 410.333C484.881 407.995 484.779 405.255 485.26 402.649C463.04 394.55 443.807 379.215 419.777 375.671C418.95 375.539 418.487 374.574 418.693 373.867C420.369 370.024 444.458 379.939 448.059 381.735C458.679 386.62 468.627 392.709 478.949 398.082C481.101 399.18 483.469 399.771 485.822 400.342C489.439 388.939 495.557 378.487 500.248 367.494C499.943 366.987 499.684 366.454 499.464 365.907C499.619 371.953 493.498 371.869 492.653 366.133C493.002 369.123 490.648 375.526 487.252 371.325C486.455 370.269 486.173 368.918 486.038 367.554C485.863 368.497 485.665 369.435 485.445 370.37C484.573 372.222 482.193 369.97 481.64 369.004C481.321 368.949 481.023 368.809 480.804 368.638C474.798 369.44 467.724 369.393 463.317 364.838C455.842 367.593 447.569 365.125 440.009 364.025C424.625 362.326 409.18 359.736 393.658 359.934C386.728 360.321 378.552 361.395 374.169 367.076C368.546 375.264 371.724 386.323 377.927 393.411C392.847 411.558 444.062 419.449 468.074 422.151M467.654 428.688C467.383 428.618 467.109 428.554 466.838 428.493C462.483 431.976 441.972 441.021 443.532 446.423C444.084 447.095 445.404 447.248 446.238 447.465C447.691 447.843 449.159 448.17 450.64 448.429C455.429 449.266 460.388 449.411 465.171 448.457C466.93 448.2 468.519 447.479 470.121 446.781C475.299 444.593 481.002 442.176 486.155 440.006C492.702 437.513 504.185 432.599 499.462 424.308C494.988 429.143 489.308 428.721 486.447 422.712C485.461 420.888 484.6 418.429 482.283 417.692C481.06 416.898 479.497 416.733 478.476 417.617C478.402 417.507 478.336 417.353 478.3 417.216C477.149 418.79 476.155 420.448 474.806 421.887C475.269 421.911 480.093 425.34 478.669 425.342C476.957 424.494 475.255 423.788 473.406 423.332C472.066 424.626 470.592 425.831 469.065 426.944C470.548 427.885 471.881 429.037 472.952 430.287C473.045 430.398 472.932 430.54 472.793 430.481C471.13 429.769 469.419 429.143 467.654 428.688M445.578 452.048C462.236 459.236 479.871 451.232 494.077 442.699C497.355 440.941 501.668 438.448 501.005 434.307C498.59 437.701 494.609 439.634 490.788 441.309C484.369 444.097 477.907 446.795 471.472 449.548C470.864 451.485 467.958 451.559 466.201 451.989C458.382 453.446 449.977 452.722 442.618 449.817C443.044 451.029 444.437 451.585 445.578 452.048M512.04 424.06C512.452 424.111 512.863 424.157 513.275 424.201C513.232 423.678 513.561 423.155 514.089 422.993C513.851 421.884 513.763 420.738 513.891 419.612C513.203 421.32 510.981 420.802 509.57 420.309C507.555 419.783 505.552 419.217 503.559 418.613C502.774 420.015 501.941 421.396 500.918 422.666C504.642 422.984 508.331 423.616 512.04 424.06M513.679 418.688C513.778 418.888 513.919 419.101 513.922 419.342C514.023 418.511 514.219 417.69 514.518 416.904C514.238 417.498 513.958 418.093 513.679 418.688M516.029 414.232C517.861 411.938 521.246 410.064 524.376 410.703C524.577 410.745 524.582 411.055 524.376 411.094C520.172 411.643 516.48 414.846 516.334 418.988C516.002 420.863 517.36 422.703 516.902 424.502C516.994 424.508 517.085 424.512 517.174 424.518C517.207 424.638 517.237 424.745 517.276 424.839C516.822 424.912 516.689 425.614 517.225 425.739C517.542 425.813 517.873 425.852 518.211 425.868C519.925 425.423 521.733 425.321 523.372 424.664C524.993 423.976 524.588 422.041 525.16 420.702C525.579 419.157 526.062 417.619 526.67 416.137C526.714 416.018 526.882 416.044 526.896 416.165C527.325 419.122 527.311 422.129 527.207 425.11C527.769 425.165 528.329 425.226 528.89 425.293C528.853 424.46 531.453 414.317 532.823 416.92C532.134 419.782 532.051 422.771 531.977 425.716C536.044 426.36 540.052 427.319 543.951 428.624C546.699 429.424 549.967 431.791 552.634 429.651C554.7 428.01 555.396 425.147 555.202 422.71C552.515 408.295 531.296 406.611 518.77 407.676C517.587 410.299 516.382 412.912 515.162 415.52C515.415 415.071 515.704 414.64 516.029 414.232M558.751 422.429C558.98 419.156 558.407 415.081 555.882 412.642C550.104 407.948 542.013 406.472 534.792 404.773C531.429 404.135 528.019 403.712 524.596 403.501C523.381 403.408 521.839 403.673 520.981 402.719C520.539 403.724 520.092 404.727 519.644 405.73C534.019 403.921 564.01 410.206 555.612 429.123C557.39 427.273 558.569 425.019 558.751 422.429M487.332 411.608C486.671 413.196 485.861 414.708 484.804 416.09C486.006 416.846 486.986 417.962 487.678 419.162C492.108 430.297 496.846 424.332 502.733 418.358C497.751 416.551 491.153 415.198 487.332 411.608M561.076 420.164C572.596 409.231 574.832 391.019 570.576 376.703C570.197 371.394 568.265 366.335 566.534 361.309C561.021 346.063 553.77 331.394 545.075 317.545C534.286 320.392 523.517 323.315 512.703 326.068C511.214 326.379 509.723 326.993 508.194 327.082C507.647 327.416 507.099 327.785 506.53 328.109C507.358 332.005 506.595 335.984 506.401 339.904C506.226 342.99 506.573 346.012 506.999 349.066C507.474 353.508 509.434 367.956 505.508 370.601C504.177 371.217 502.988 369.39 502.414 369.893C501.897 369.547 501.415 369.096 501.022 368.6C499.506 373.309 497.029 377.678 495.498 382.392C493.462 389.32 486.776 400.533 488.26 407.141C489.409 411.222 494.433 412.102 498.059 413.436C502.249 414.836 506.486 416.122 510.793 417.165C512.895 412.88 514.904 408.553 516.876 404.211C525.887 384.176 533.868 363.724 541.001 343.027C541.134 342.568 542.775 337.591 543.075 338.979C543.1 338.836 543.287 338.468 543.357 338.783C542.148 343.643 540.921 348.501 539.593 353.334C542.855 352.895 546.361 352.724 549.346 354.26C549.5 354.339 549.387 354.533 549.235 354.51C545.7 353.921 542.291 355.033 538.896 355.831C534.127 371.423 527.975 386.619 521.463 401.624C523.477 401.008 525.815 401.69 527.917 401.739C534.537 402.396 541.083 403.787 547.337 405.952C555.198 408.4 560.757 411.593 561.076 420.164M567.418 306.387C569.354 304.384 570.875 301.827 570.581 299.114C569.418 297.625 569.033 295.682 568.356 293.96C565.709 286.756 563.252 279.497 560.37 272.37C554.242 274.181 548.212 276.353 542.525 279.206C541.478 279.719 540.443 280.251 539.42 280.802C538.349 281.379 537.18 282.381 535.895 282.094C537.299 284.004 540.192 285.992 540.68 288.2C540.786 288.898 540.27 289.547 539.478 289.39C527.084 297.848 514.285 306.127 502.57 315.547C493.797 322.219 487.062 327.63 484.053 338.456C482.025 345.468 482.019 352.797 482.317 360.007C482.375 361.409 482.377 362.843 482.495 364.254C482.319 365.31 482.653 367.458 483.888 367.497C483.86 367.752 483.772 367.989 483.632 368.197C483.671 368.247 483.712 368.295 483.755 368.344C483.816 368.055 483.876 367.769 483.932 367.48C484.894 363.389 485.023 358.642 484.862 354.287C484.795 353.038 486.788 353.068 486.9 354.287C487.2 357.579 487.5 360.872 487.8 364.164C488.16 366.297 487.593 369.087 489.368 370.709C491.173 369.107 490.576 365.946 490.488 363.878C490.347 360.505 490.194 357.133 490.064 353.76C490.023 352.691 491.866 352.416 492.075 353.503C492.667 356.601 493.308 359.69 493.998 362.771C494.414 363.961 494.7 369.304 496.78 368.377C498.02 367.563 497.126 362.796 497.289 361.217C497.212 358.092 497.167 354.972 496.928 351.854C496.831 350.597 498.962 350.329 499.255 351.557C499.729 353.545 500.183 355.532 500.595 357.533C501.498 360.906 501.17 365.479 504.431 367.721C505.709 358.959 503.871 350.258 503.613 341.527C503.767 338.698 504.273 335.897 504.719 333.103C505.212 330.012 505.5 326.648 504.345 323.667C504.661 322.332 505.902 325.943 506.018 326.243C506.953 324.474 509.229 324.337 511.03 323.786C515.031 322.542 519.13 321.604 523.179 320.498C533.916 317.633 544.665 314.813 555.417 311.999C559.712 310.857 564.234 309.506 567.418 306.387M459.903 352.993C461.384 345.279 461.344 337.463 460.71 329.664C460.014 317.569 459.339 305.471 458.616 293.378C455.479 315.266 452.134 337.13 449.577 359.088C449.394 360.617 449.422 362.234 448.62 363.597C453.056 364.168 457.785 364.743 462.099 363.294C460.206 360.15 459.538 356.57 459.903 352.993M437.485 298.659C434.131 319.405 436.045 340.515 432.791 361.236C437.305 361.723 441.784 362.442 446.251 363.233C445.762 360.673 446.689 358.03 446.849 355.452C449.275 337.066 451.953 318.691 455.502 300.466C456.373 296.104 457.253 291.76 458.261 287.422C458.109 284.795 457.975 282.169 457.887 279.54C452.962 276.566 447.408 274.64 441.664 273.67C440.112 281.977 438.562 290.278 437.485 298.659M476.314 233.469C476.511 233.146 476.697 232.816 476.877 232.482C476.27 232.504 475.679 232.525 475.082 232.62C475.109 233.543 475.056 234.474 475.045 235.404C475.343 234.724 475.928 234.102 476.314 233.469M375.009 363.474C389.336 353.466 412.867 359.842 429.464 360.871C432.628 340.94 431.336 320.683 434.285 300.72C437.002 280.776 439.866 260.553 446.687 241.445C449.502 234.056 454.373 231.862 462.391 231.921C466.46 231.768 470.764 231.142 474.718 231.231C475.585 231.245 476.492 231.355 477.274 231.691C478.374 229.309 478.971 226.752 479.272 224.176C479.291 224.013 479.508 223.983 479.573 224.139C480.503 226.382 480.602 228.831 480.096 231.18C479.73 232.862 477.551 239.485 475.02 236.894C474.819 242.328 476.061 248.817 481.602 251.637C491.285 255.692 504.669 251.999 510.277 243.392C511.361 241.672 512.296 239.842 513.496 238.19C505.134 235.916 500.439 226.29 502.409 218.96C503.627 224.661 505.847 231.031 511.375 234.224C531.507 234.181 548.245 242.989 557.703 259.954C559.553 262.418 561.264 264.977 562.832 267.582C563.676 269.324 566.147 271.747 564.05 273.43C566.472 279.641 568.622 285.938 570.893 292.199C571.517 294.284 572.944 296.473 572.659 298.665C572.967 300.017 572.953 301.615 572.248 302.914C571.578 305.23 570.076 308.346 567.586 309.329C565.473 311.183 562.801 312.46 560.014 313.421C567.447 332.081 570.276 352.205 572.794 371.921C575.263 389.168 576.537 410.149 561.071 422.614C560.771 426.18 558.569 430.725 554.213 430.763C551.197 433.609 547.521 432.048 544.163 430.656C538.497 428.64 532.553 427.523 526.648 426.9C526.015 427.375 524.984 427.296 524.42 426.742C520.843 425.95 515.884 429.158 515.162 426.251C510.549 425.822 505.987 425.016 501.379 424.546C503.321 426.967 503.181 430.536 501.718 433.151C505.443 440.19 496.766 444.266 491.461 447.154C484.298 451.139 476.818 454.919 468.627 456.571C461.425 458.026 453.881 457.585 446.932 455.26C443.281 454.378 438.181 451.484 440.348 447.406C437.602 439.646 456.888 431.605 462.561 427.719C460.242 427.441 460.157 422.817 466.189 425.474C466.918 425.006 467.634 424.522 468.343 424.031C443.947 421.337 397.358 413.926 379.702 397.906C370.003 389.669 364.406 373.007 375.009 363.474" fill="black"/>
</svg>
