<svg width="40" height="38" viewBox="0 0 40 38" fill="none" xmlns="http://www.w3.org/2000/svg">
<path fill-rule="evenodd" clip-rule="evenodd" d="M21.34 0.316898L38.34 9.8169C38.839 10.066 39.2587 10.4494 39.552 10.9238C39.8452 11.3983 40.0004 11.9451 40 12.5029V15.3829C40 16.7629 38.88 17.8829 37.5 17.8829H36V33.8829H38C38.5304 33.8829 39.0391 34.0936 39.4142 34.4687C39.7893 34.8438 40 35.3525 40 35.8829C40 36.4133 39.7893 36.922 39.4142 37.2971C39.0391 37.6722 38.5304 37.8829 38 37.8829H2C1.46957 37.8829 0.960859 37.6722 0.585786 37.2971C0.210714 36.922 0 36.4133 0 35.8829C0 35.3525 0.210714 34.8438 0.585786 34.4687C0.960859 34.0936 1.46957 33.8829 2 33.8829H4V17.8829H2.5C1.12 17.8829 0 16.7629 0 15.3829V12.5029C0 11.4589 0.54 10.4989 1.412 9.9549L18.658 0.316898C19.0747 0.108498 19.5341 0 20 0C20.4659 0 20.9233 0.108498 21.34 0.316898ZM30 17.8829H10V33.8829H14V21.8829H18V33.8829H22V21.8829H26V33.8829H30V17.8829ZM20 7.8829C19.4696 7.8829 18.9609 8.09361 18.5858 8.46869C18.2107 8.84376 18 9.35247 18 9.8829C18 10.4133 18.2107 10.922 18.5858 11.2971C18.9609 11.6722 19.4696 11.8829 20 11.8829C20.5304 11.8829 21.0391 11.6722 21.4142 11.2971C21.7893 10.922 22 10.4133 22 9.8829C22 9.35247 21.7893 8.84376 21.4142 8.46869C21.0391 8.09361 20.5304 7.8829 20 7.8829Z" fill="white"/>
</svg>
