<svg width="32" height="32" viewBox="0 0 32 32" fill="none" xmlns="http://www.w3.org/2000/svg">
<path d="M15.625 31.2163C14.6167 31.2163 13.601 31.102 12.578 30.8734C11.555 30.6449 10.5082 30.3161 9.4375 29.8871C9.80417 26.1899 10.8736 22.7371 12.6458 19.5288C14.4181 16.3204 16.6944 13.494 19.475 11.0496C16.1139 12.7607 13.2038 15.0218 10.7447 17.8329C8.28556 20.644 6.5665 23.8524 5.5875 27.4579C5.46528 27.3663 5.351 27.2673 5.24467 27.1609L4.9 26.8163C3.46389 25.3802 2.37183 23.776 1.62383 22.0038C0.875833 20.2315 0.501222 18.3829 0.5 16.4579C0.5 14.3802 0.9125 12.394 1.7375 10.4996C2.5625 8.60515 3.70833 6.9246 5.175 5.45793C7.65 2.98293 10.8583 1.37143 14.8 0.623431C18.7417 -0.124569 24.2722 -0.193625 31.3917 0.416263C31.9417 7.71904 31.85 13.2881 31.1167 17.1234C30.3833 20.9588 28.7944 24.098 26.35 26.5413C24.8528 28.0385 23.1796 29.1923 21.3303 30.0026C19.4811 30.8129 17.5793 31.2175 15.625 31.2163Z" fill="white"/>
</svg>
