<svg width="44" height="37" viewBox="0 0 44 37" fill="none" xmlns="http://www.w3.org/2000/svg">
<path d="M3.71548 12.4028C3.53273 12.2023 3.31126 12.0428 3.06509 11.9343C2.81892 11.8259 2.55342 11.7709 2.28539 11.7728C1.38333 11.7728 0.701292 12.2003 0.261265 13.0778C-0.178761 13.9553 -0.0687546 14.7878 0.635288 15.5753C3.23145 17.9603 4.88155 19.6478 5.58559 20.6378C6.48765 21.8978 6.92767 23.7428 6.92767 26.1278C6.92767 29.0753 8.02774 31.2578 10.2279 32.7653C11.4599 33.7553 12.802 34.4978 14.2981 34.9928V26.2403C14.2981 24.1253 13.5721 22.3703 12.186 20.9528M31.8112 21.0653C30.4471 22.4603 29.6991 24.1928 29.6991 26.2403V35.0828C31.8112 34.3178 33.5713 33.1253 35.0234 31.5503C36.4535 29.9753 37.1795 28.2428 37.1795 26.1278C37.1795 23.5853 37.5975 21.7628 38.4336 20.6378C38.6316 20.2778 39.0056 19.8278 39.5997 19.2653C40.1057 18.7028 40.6337 18.1628 41.1618 17.6678C41.6678 17.1953 42.1738 16.7003 42.6578 16.2053L43.3839 15.5753C43.5806 15.3842 43.7368 15.1537 43.8427 14.8983C43.9487 14.6428 44.0022 14.3678 43.9999 14.0903C43.9999 13.4603 43.8019 12.8978 43.3839 12.4478C42.9659 11.9978 42.4598 11.7728 41.7998 11.7728C41.1398 11.7728 40.6997 11.9753 40.2817 12.4028M21.9986 36.8828C23.5167 36.8828 24.9908 36.6803 26.3989 36.2528V28.2203C26.3989 26.8928 26.0028 25.8578 25.1008 24.8678C24.1987 23.8778 23.1647 23.3828 21.9986 23.3828C20.8325 23.3828 19.7985 23.8328 18.9624 24.7553C18.0824 25.6328 17.5983 26.6678 17.5983 28.0178V36.2528C19.0064 36.6803 20.4805 36.8828 21.9986 36.8828ZM15.3982 11.0078C15.3982 12.8753 13.9241 14.3828 12.098 14.3828C10.2719 14.3828 8.79779 12.8753 8.79779 11.0078C8.79779 9.14031 10.2719 7.63281 12.098 7.63281C13.9241 7.63281 15.3982 9.14031 15.3982 11.0078ZM35.1994 11.0078C35.1994 12.8753 33.7253 14.3828 31.8992 14.3828C30.0731 14.3828 28.599 12.8753 28.599 11.0078C28.599 9.14031 30.0731 7.63281 31.8992 7.63281C33.7253 7.63281 35.1994 9.14031 35.1994 11.0078ZM25.2988 4.25781C25.2988 6.12531 23.8247 7.63281 21.9986 7.63281C20.1725 7.63281 18.6984 6.12531 18.6984 4.25781C18.6984 2.39031 20.1725 0.882812 21.9986 0.882812C23.8247 0.882812 25.2988 2.39031 25.2988 4.25781ZM25.2988 16.6328C25.2988 18.5003 23.8247 20.0078 21.9986 20.0078C20.1725 20.0078 18.6984 18.5003 18.6984 16.6328C18.6984 14.7653 20.1725 13.2578 21.9986 13.2578C23.8247 13.2578 25.2988 14.7653 25.2988 16.6328Z" fill="white"/>
</svg>
