<svg width="50" height="50" viewBox="0 0 50 50" fill="none" xmlns="http://www.w3.org/2000/svg">
<path d="M17.7487 10.3825V0.71582M17.7487 49.0492V39.3825M32.2487 49.0492V39.3825M49.1654 32.1325H39.4987M10.4987 32.1325H0.832031M10.4987 17.6325H0.832031M32.2487 3.13249C36.0943 3.13249 39.7825 4.66016 42.5018 7.37944C45.221 10.0987 46.7487 13.7868 46.7487 17.6325M10.4987 12.7992C10.4987 12.1582 10.7533 11.5435 11.2065 11.0903C11.6597 10.6371 12.2744 10.3825 12.9154 10.3825H32.2487C34.1715 10.3825 36.0156 11.1463 37.3752 12.506C38.7349 13.8656 39.4987 15.7097 39.4987 17.6325V36.9658C39.4987 37.6068 39.2441 38.2215 38.7909 38.6747C38.3377 39.1279 37.723 39.3825 37.082 39.3825H12.9154C12.2744 39.3825 11.6597 39.1279 11.2065 38.6747C10.7533 38.2215 10.4987 37.6068 10.4987 36.9658V12.7992Z" stroke="white" stroke-width="3"/>
</svg>
