<svg width="21" height="20" viewBox="0 0 21 20" fill="none" xmlns="http://www.w3.org/2000/svg">
<path fill-rule="evenodd" clip-rule="evenodd" d="M18.7786 0.429965C19.0257 0.325956 19.2962 0.290084 19.5619 0.326082C19.8276 0.362081 20.0788 0.468633 20.2893 0.63465C20.4998 0.800667 20.662 1.02008 20.759 1.27005C20.8559 1.52002 20.8841 1.79141 20.8406 2.05597L18.5726 15.813C18.3526 17.14 16.8966 17.901 15.6796 17.24C14.6616 16.687 13.1496 15.835 11.7896 14.946C11.1096 14.501 9.02661 13.076 9.28261 12.062C9.50261 11.195 13.0026 7.93697 15.0026 5.99997C15.7876 5.23897 15.4296 4.79997 14.5026 5.49997C12.2006 7.23797 8.50461 9.88097 7.28261 10.625C6.20461 11.281 5.64261 11.393 4.97061 11.281C3.74461 11.077 2.60761 10.761 1.67961 10.376C0.425607 9.85597 0.486607 8.13197 1.67861 7.62997L18.7786 0.429965Z" fill="white"/>
</svg>
