<svg width="34" height="34" viewBox="0 0 34 34" fill="none" xmlns="http://www.w3.org/2000/svg">
<g clip-path="url(#clip0_258_4542)">
<path d="M24.1435 19.9575C23.7299 19.769 21.6693 18.8739 21.286 18.7528C20.9027 18.6249 20.6219 18.5643 20.3448 18.9412C20.064 19.3147 19.2671 20.1459 19.0166 20.3983C18.7738 20.6474 18.5271 20.6776 18.1134 20.4926C15.6543 19.4022 14.0415 18.5475 12.4211 16.0808C11.9922 15.4246 12.8499 15.4717 13.6506 14.055C13.7872 13.806 13.7189 13.594 13.6127 13.4055C13.5064 13.2171 12.6715 11.3932 12.3224 10.6495C11.9847 9.92597 11.6355 10.0269 11.3813 10.0135C11.1384 10 10.8614 10 10.5805 10C10.2997 10 9.84812 10.0942 9.46484 10.461C9.08155 10.8346 8 11.7331 8 13.557C8 15.3809 9.49899 17.1476 9.70391 17.3966C9.91643 17.6456 12.6526 21.3877 16.8535 22.9996C19.51 24.0159 20.5498 24.1034 21.878 23.9284C22.6863 23.8207 24.3523 23.0332 24.6976 22.1617C25.0429 21.2935 25.0429 20.5498 24.9405 20.395C24.838 20.2301 24.5572 20.1358 24.1435 19.9575Z" fill="white"/>
<path d="M32.6793 10.4125C31.8217 8.37478 30.5922 6.54576 29.0251 4.97478C27.4579 3.40759 25.6289 2.17433 23.5874 1.32054C21.5004 0.443973 19.2843 0 17 0H16.9241C14.6246 0.0113839 12.3972 0.466741 10.3025 1.36228C8.28002 2.22746 6.46621 3.45692 4.91422 5.02411C3.36223 6.59129 2.14416 8.41272 1.30176 10.4429C0.429005 12.5451 -0.0111685 14.7801 0.000215278 17.0797C0.0115991 19.7132 0.641502 22.3277 1.82162 24.6652V30.433C1.82162 31.3969 2.60331 32.1786 3.56713 32.1786H9.33871C11.6762 33.3587 14.2907 33.9886 16.9241 34H17.0038C19.2768 34 21.4814 33.5598 23.5571 32.6984C25.5872 31.8522 27.4124 30.6379 28.9757 29.0859C30.5429 27.5339 31.7762 25.7201 32.6375 23.6975C33.5331 21.6029 33.9884 19.3754 33.9998 17.0759C34.0112 14.765 33.5634 12.5223 32.6793 10.4125ZM26.9456 27.033C24.2856 29.6665 20.7567 31.1161 17 31.1161H16.9355C14.6474 31.1047 12.3744 30.5355 10.3671 29.4654L10.0483 29.2946H4.70551V23.9518L4.53476 23.633C3.46468 21.6257 2.89549 19.3527 2.88411 17.0645C2.86893 13.2813 4.31467 9.72946 6.96709 7.05424C9.61572 4.37902 13.1561 2.89911 16.9393 2.88393H17.0038C18.9011 2.88393 20.7415 3.25201 22.4756 3.98058C24.168 4.69018 25.6858 5.71094 26.9912 7.01629C28.2927 8.31786 29.3173 9.83951 30.0268 11.5319C30.763 13.285 31.1311 15.1444 31.1235 17.0645C31.1007 20.844 29.617 24.3844 26.9456 27.033Z" fill="white"/>
</g>
<defs>
<clipPath id="clip0_258_4542">
<rect width="34" height="34" fill="white"/>
</clipPath>
</defs>
</svg>
